<svg xmlns="http://www.w3.org/2000/svg" viewBox="0 0 512 512">
  <defs>
    <linearGradient id="brandGradient" x1="0%" y1="0%" x2="100%" y2="100%">
      <stop offset="0%" style="stop-color:#3b82f6;stop-opacity:1" /> <!-- Primary -->
      <stop offset="100%" style="stop-color:#06b6d4;stop-opacity:1" /> <!-- Accent -->
    </linearGradient>
  </defs>
  
  <!-- Background with Gradient and Rounded Corners -->
  <rect x="0" y="0" width="512" height="512" rx="100" ry="100" fill="url(#brandGradient)" />
  
  <!-- White Heartbeat Icon, scaled and centered -->
  <path transform="translate(56, 56) scale(0.78)" fill="#ffffff" d="M414.3 24.3c-23.7-23.7-57.2-31.5-85.7-18.4-18.1 8.2-27.1 24.2-32.9 40.5-5.9 16.4-9.3 33-14.7 49.3-1.6 4.9-5.1 8.9-9.5 10.9-4.5 2.1-9.7 2-14.1-.1-2.9-1.4-5.2-3.8-6.9-6.9-2-3.8-3.4-7.8-4.5-12-1.9-6.6-4.5-13.1-6.8-19.6-3.8-11-7.9-21.7-13.7-32-15.3-27.6-42.5-44.5-73.4-44.5h-10.4c-28.5 0-51.4 23.4-51.4 51.4v70c-.1 7.2 4.4 13.9 11.2 16.6 2.8 1.1 5.6 1.6 8.3 1.6 4.4 0 8.7-1.5 12.1-4.4 1.8-1.5 3.3-3.2 4.5-5.1 4.2-6.5 8.4-13.1 12.6-19.6 1.3-2 2.7-4 4.2-5.9 3.1-3.9 7.6-5.8 12.3-5.8h6.2c36.7 0 69 22.4 83 55 11.3 26.2 13.6 54.3 14 82.5.3 2.1.6 4.2.9 6.2 0 1.9.4 3.7.8 5.6 1.7 8.2 3.6 16.3 6 24.3 2.5 8.3 5.4 16.5 8.7 24.6 1.1 2.8 2.3 5.5 3.6 8.2 1.3 2.7 2.6 5.4 4 8 1 1.7 2.1 3.4 3.2 5.1 1.1 1.7 2.3 3.4 3.5 5.1 3.8 5.7 8.1 11.3 12.8 16.7 2.3 2.8 4.7 5.5 7.1 8.2 2.4 2.7 4.9 5.3 7.4 7.9 3.5 3.5 7 6.9 10.5 10.3 3.6 3.5 7.2 6.8 10.8 10.1 2.3 2.1 4.6 4.1 7 6.1 2.4 1.9 4.8 3.9 7.3 5.8 3.9 3 8 5.9 12.1 8.8 4.1 2.9 8.2 5.8 12.5 8.6 3.2 2.2 6.5 4.3 9.7 6.4 3.3 2.1 6.6 4.1 10 6 2.3 1.3 4.6 2.5 6.9 3.7 2.4 1.2 4.8 2.4 7.2 3.5 4 1.9 8 3.6 12 5.3 4 1.7 8.1 3.3 12.2 4.9 2.7 1.1 5.3 2.1 8 3.1 2.7 1 5.4 1.9 8.2 2.7 4.5 1.4 9 2.6 13.6 3.8 4.6 1.2 9.2 2.2 13.9 3.2 3 1.9 6.2 3.8 9.5 5.7 3.3 1.9 6.6 3.9 10 5.8 2.9 1.6 5.9 3.2 8.9 4.7 3 1.5 6 3 9.1 4.5 2.1 1.1 4.3 2.1 6.5 3.1 2.2 1.1 4.4 2.1 6.7 3 2.6 1.1 5.2 2.2 7.8 3.2 2.6 1.1 5.3 2.1 7.9 3.1 3.8 1.4 7.6 2.8 11.4 4.1 3.8 1.3 7.6 2.6 11.5 3.9 2.5 1 5 2 7.6 3 2.6 1 5.2 2 7.9 2.9 3.5 1.3 7 2.5 10.6 3.7 3.6 1.2 7.3 2.3 11 3.4 2.3.4 4.6.8 6.9 1.1 2.3.4 4.7.8 7.1 1.2 3.2.5 6.4.9 9.7 1.4 3.2.5 6.4.9 9.7 1.4 1.8.2 3.6.3 5.4.5 1.8.2 3.6.3 5.4.5.9 0 1.8.1 2.7.1 0 0 0 0 0 0 0 0 0 0 0 0 25.1-40.4 25.1-60.6 0-25.1-20.4-45.5-45.5-45.5-12.7 0-24.1 5.2-32.3 13.7-8.3 8.5-13.6 19.9-13.6 32.7 0 12.8 5.3 24.2 13.6 32.7 8.3 8.5 19.6 13.7 32.3 13.7 1.8 0 3.6 0 5.4-.1.9 0 1.7 0 2.5-.1 0 0 .1 0 .1 0 0 0 0 0 0 0 0 0 0 0 0 0 0 0-41.9-20.2-70.5-38.3-95.2-25.7-33.1-50.6-67-73.4-100.9-1.9-2.7-3.6-5.5-5.2-8.3-2.3-4.2-4.2-8.6-5.8-13.2-1.9-5.4-3.5-10.9-4.8-16.5-1.2-5.4-2.1-10.9-2.9-16.4-1.3-9.5-1.7-19-1.4-28.5.1-4 .4-7.9.6-11.8.1-1.7.2-3.4.3-5.1.1-1.7.2-3.4.3-5.1.1-1.7.2-3.4.3-5.1.1-1.7.2-3.4.3-5.1.1-1.7.2-3.4.3-5.1.1-1.7.2-3.4.3-5.1.1-1.7.2-3.4.3-5.1.1-1.7.2-3.4.3-5.1.1-1.7.2-3.4.3-5.1.1-1.7.2-3.4.3-5.1.1-1.7.2-3.4.3-5.1.1-1.7.2-3.4.3-5.1.1-1.7.2-3.4.3-5.1.1-1.7.2-3.4.3-5.1.1-1.7.2-3.4.3-5.1.1-1.7.2-3.4.3-5.1.1-1.7.2-3.4.3-5.1.1-1.7.2-3.4.3-5.1.1-1.7.2-3.4.3-5.1.1-1.7.2-3.4.3-5.1.1-1.7.2-3.4.3-5.1.1-1.7.2-3.4.3-5.1.1-1.7.2-3.4.3-5.1.1-1.7.2-3.4.3-5.1.1-1.7.2-3.4.3-5.1.1-1.7.2-3.4.3-5.1.1-1.7.2-3.4.3-5.1.1-1.7.2-3.4.3-5.1.1-1.7.2-3.4.3-5.1.1-1.7.2-3.4.3-5.1.1-1.7.2-3.4.3-5.1.1-1.7.2-3.4.3-5.1.1-1.7.2-3.4.3-5.1.1-1.7.2-3.4.3-5.1.1-1.7.2-3.4.3-5.1.1-1.7.2-3.4.3-5.1.1-1.7.2-3.4.3-5.1.1-1.7.2-3.4.3-5.1.1-1.7.2-3.4.3-5.1.1-1.7.2-3.4.3-5.1.1-1.7.2-3.4.3-5.1.1-1.7.2-3.4.3-5.1.1-1.7.2-3.4.3-5.1.1-1.7.2-3.4.3-5.1.1-1.7.2-3.4.3-5.1.1-1.7.2-3.4.3-5.1.1-1.7.2-3.4.3-5.1.1-1.7.2-3.4.3-5.1.1-1.7.2-3.4.3-5.1.1-1.7.2-3.4.3-5.1.1-1.7.2-3.4.3-5.1.1-1.7.2-3.4.3-5.1.1-1.7.2-3.4.3-5.1.1-1.7.2-3.4.3-5.1.1-1.7.2-3.4.3-5.1.1-1.7.2-3.4.3-5.1.1-1.7.2-3.4.3-5.1.1-1.7.2-3.4.3-5.1.1-1.7.2-3.4.3-5.1.1-1.7.2-3.4.3-5.1.1-1.7.2-3.4.3-5.1.1-1.7.2-3.4.3-5.1.1-1.7.2-3.4.3-5.1.1-1.7.2-3.4.3-5.1.1-1.7.2-3.4.3-5.1.1-1.7.2-3.4.3-5.1.1-1.7.2-3.4.3-5.1.1-1.7.2-3.4.3-5.1.1-1.7.2-3.4.3-5.1.1-1.7.2-3.4.3-5.1.1-1.7.2-3.4.3-5.1.1-1.7.2-3.4.3-5.1.1-1.7.2-3.4.3-5.1.1-1.7.2-3.4.3-5.1.1-1.7.2-3.4.3-5.1.1-1.7.2-3.4.3-5.1.1-1.7.2-3.4.3-5.1.1-1.7.2-3.4.3-5.1.1-1.7.2-3.4.3-5.1.1-1.7.2-3.4.3-5.1.1-1.7.2-3.4.3-5.1.1-1.7.2-3.4.3-5.1.1-1.7.2-3.4.3-5.1.1-1.7.2-3.4.3-5.1.1-1.7.2-3.4.3-5.1.1-1.7.2-3.4.3-5.1.1-1.7.2-3.4.3-5.1.1-1.7.2-3.4.3-5.1.1-1.7.2-3.4.3-5.1.1-1.7.2-3.4.3-5.1.1-1.7.2-3.4.3-5.1.1-1.7.2-3.4.3-5.1.1-1.7.2-3.4.3-5.1.1-1.7.2-3.4.3-5.1.1-1.7.2-3.4.3-5.1.1-1.7.2-3.4.3-5.1.1-1.7.2-3.4.3-5.1.1-1.7.2-3.4.3-5.1.1-1.7.2-3.4.3-5.1.1-1.7.2-3.4.3-5.1.1-1.7.2-3.4.3-5.1.1-1.7.2-3.4.3-5.1.1-1.7.2-3.4.3" />
</svg>
